<svg xmlns="http://www.w3.org/2000/svg" viewBox="0 0 2000 2000" width="2000" height="2000">
  <g transform="translate(160, 622)">
    <rect x="96" y="0" width="48" height="126" fill="#f4956a"/>
    <rect x="144" y="0" width="48" height="126" fill="#f4956a"/>
    <rect x="192" y="0" width="48" height="126" fill="#f4956a"/>
    <rect x="240" y="0" width="48" height="126" fill="#f4956a"/>
    <rect x="288" y="0" width="48" height="126" fill="#f4956a"/>
    <rect x="336" y="0" width="48" height="126" fill="#f4956a"/>
    <path d="M384,63 H408 V126" stroke="#f4956a" stroke-width="9" stroke-linecap="square" fill="none"/>
    <rect x="528" y="0" width="48" height="126" fill="#7dcfff"/>
    <rect x="576" y="0" width="48" height="126" fill="#7dcfff"/>
    <rect x="624" y="0" width="48" height="126" fill="#7dcfff"/>
    <rect x="672" y="0" width="48" height="126" fill="#7dcfff"/>
    <rect x="720" y="0" width="48" height="126" fill="#7dcfff"/>
    <rect x="768" y="0" width="48" height="126" fill="#7dcfff"/>
    <path d="M816,63 H840 V126" stroke="#7dcfff" stroke-width="9" stroke-linecap="square" fill="none"/>
    <rect x="912" y="0" width="48" height="126" fill="#7dcfff"/>
    <rect x="960" y="0" width="48" height="126" fill="#7dcfff"/>
    <rect x="1008" y="0" width="48" height="126" fill="#7dcfff"/>
    <rect x="1056" y="0" width="48" height="126" fill="#7dcfff"/>
    <rect x="1104" y="0" width="48" height="126" fill="#7dcfff"/>
    <rect x="1152" y="0" width="48" height="126" fill="#7dcfff"/>
    <rect x="1200" y="0" width="48" height="126" fill="#7dcfff"/>
    <path d="M1248,63 H1272 V126" stroke="#7dcfff" stroke-width="9" stroke-linecap="square" fill="none"/>
    <rect x="1296" y="0" width="48" height="126" fill="#7dcfff"/>
    <rect x="1344" y="0" width="48" height="126" fill="#7dcfff"/>
    <rect x="1392" y="0" width="48" height="126" fill="#7dcfff"/>
    <rect x="1440" y="0" width="48" height="126" fill="#7dcfff"/>
    <rect x="1488" y="0" width="48" height="126" fill="#7dcfff"/>
    <rect x="1536" y="0" width="48" height="126" fill="#7dcfff"/>
    <path d="M1584,63 H1608 V126" stroke="#7dcfff" stroke-width="9" stroke-linecap="square" fill="none"/>
    <rect x="48" y="126" width="48" height="126" fill="#f4956a"/>
    <rect x="96" y="126" width="48" height="126" fill="#f4956a"/>
    <path d="M192,189 H168 V252" stroke="#f4956a" stroke-width="9" stroke-linecap="square" fill="none"/>
    <line x1="192" y1="189" x2="240" y2="189" stroke="#f4956a" stroke-width="9" stroke-linecap="square" fill="none"/>
    <line x1="240" y1="189" x2="288" y2="189" stroke="#f4956a" stroke-width="9" stroke-linecap="square" fill="none"/>
    <line x1="288" y1="189" x2="336" y2="189" stroke="#f4956a" stroke-width="9" stroke-linecap="square" fill="none"/>
    <rect x="336" y="126" width="48" height="126" fill="#f4956a"/>
    <rect x="384" y="126" width="48" height="126" fill="#f4956a"/>
    <path d="M432,189 H456 V252" stroke="#f4956a" stroke-width="9" stroke-linecap="square" fill="none"/>
    <rect x="480" y="126" width="48" height="126" fill="#7dcfff"/>
    <rect x="528" y="126" width="48" height="126" fill="#7dcfff"/>
    <path d="M624,189 H600 V252" stroke="#7dcfff" stroke-width="9" stroke-linecap="square" fill="none"/>
    <line x1="624" y1="189" x2="672" y2="189" stroke="#7dcfff" stroke-width="9" stroke-linecap="square" fill="none"/>
    <line x1="672" y1="189" x2="720" y2="189" stroke="#7dcfff" stroke-width="9" stroke-linecap="square" fill="none"/>
    <line x1="720" y1="189" x2="768" y2="189" stroke="#7dcfff" stroke-width="9" stroke-linecap="square" fill="none"/>
    <line x1="768" y1="189" x2="816" y2="189" stroke="#7dcfff" stroke-width="9" stroke-linecap="square" fill="none"/>
    <path d="M816,189 H840 V126" stroke="#7dcfff" stroke-width="9" stroke-linecap="square" fill="none"/>
    <rect x="912" y="126" width="48" height="126" fill="#7dcfff"/>
    <rect x="960" y="126" width="48" height="126" fill="#7dcfff"/>
    <path d="M1056,189 H1032 V252" stroke="#7dcfff" stroke-width="9" stroke-linecap="square" fill="none"/>
    <line x1="1056" y1="189" x2="1104" y2="189" stroke="#7dcfff" stroke-width="9" stroke-linecap="square" fill="none"/>
    <line x1="1104" y1="189" x2="1152" y2="189" stroke="#7dcfff" stroke-width="9" stroke-linecap="square" fill="none"/>
    <line x1="1152" y1="189" x2="1200" y2="189" stroke="#7dcfff" stroke-width="9" stroke-linecap="square" fill="none"/>
    <line x1="1200" y1="189" x2="1248" y2="189" stroke="#7dcfff" stroke-width="9" stroke-linecap="square" fill="none"/>
    <path d="M1248,189 H1272 V126" stroke="#7dcfff" stroke-width="9" stroke-linecap="square" fill="none"/>
    <rect x="1296" y="126" width="48" height="126" fill="#7dcfff"/>
    <rect x="1344" y="126" width="48" height="126" fill="#7dcfff"/>
    <path d="M1440,189 H1416 V252" stroke="#7dcfff" stroke-width="9" stroke-linecap="square" fill="none"/>
    <line x1="1440" y1="189" x2="1488" y2="189" stroke="#7dcfff" stroke-width="9" stroke-linecap="square" fill="none"/>
    <line x1="1488" y1="189" x2="1536" y2="189" stroke="#7dcfff" stroke-width="9" stroke-linecap="square" fill="none"/>
    <rect x="1536" y="126" width="48" height="126" fill="#7dcfff"/>
    <rect x="1584" y="126" width="48" height="126" fill="#7dcfff"/>
    <path d="M1632,189 H1656 V252" stroke="#7dcfff" stroke-width="9" stroke-linecap="square" fill="none"/>
    <rect x="48" y="252" width="48" height="126" fill="#f4956a"/>
    <rect x="96" y="252" width="48" height="126" fill="#f4956a"/>
    <line x1="168" y1="252" x2="168" y2="378" stroke="#f4956a" stroke-width="9" stroke-linecap="square" fill="none"/>
    <rect x="336" y="252" width="48" height="126" fill="#f4956a"/>
    <rect x="384" y="252" width="48" height="126" fill="#f4956a"/>
    <line x1="456" y1="252" x2="456" y2="378" stroke="#f4956a" stroke-width="9" stroke-linecap="square" fill="none"/>
    <rect x="480" y="252" width="48" height="126" fill="#7dcfff"/>
    <rect x="528" y="252" width="48" height="126" fill="#7dcfff"/>
    <line x1="600" y1="252" x2="600" y2="378" stroke="#7dcfff" stroke-width="9" stroke-linecap="square" fill="none"/>
    <rect x="720" y="252" width="48" height="126" fill="#7dcfff"/>
    <rect x="768" y="252" width="48" height="126" fill="#7dcfff"/>
    <rect x="816" y="252" width="48" height="126" fill="#7dcfff"/>
    <path d="M864,315 H888 V378" stroke="#7dcfff" stroke-width="9" stroke-linecap="square" fill="none"/>
    <rect x="912" y="252" width="48" height="126" fill="#7dcfff"/>
    <rect x="960" y="252" width="48" height="126" fill="#7dcfff"/>
    <rect x="1008" y="252" width="48" height="126" fill="#7dcfff"/>
    <rect x="1056" y="252" width="48" height="126" fill="#7dcfff"/>
    <rect x="1104" y="252" width="48" height="126" fill="#7dcfff"/>
    <rect x="1152" y="252" width="48" height="126" fill="#7dcfff"/>
    <rect x="1200" y="252" width="48" height="126" fill="#7dcfff"/>
    <path d="M1248,315 H1272 V378" stroke="#7dcfff" stroke-width="9" stroke-linecap="square" fill="none"/>
    <rect x="1296" y="252" width="48" height="126" fill="#7dcfff"/>
    <rect x="1344" y="252" width="48" height="126" fill="#7dcfff"/>
    <line x1="1416" y1="252" x2="1416" y2="378" stroke="#7dcfff" stroke-width="9" stroke-linecap="square" fill="none"/>
    <rect x="1536" y="252" width="48" height="126" fill="#7dcfff"/>
    <rect x="1584" y="252" width="48" height="126" fill="#7dcfff"/>
    <line x1="1656" y1="252" x2="1656" y2="378" stroke="#7dcfff" stroke-width="9" stroke-linecap="square" fill="none"/>
    <rect x="48" y="378" width="48" height="126" fill="#f4956a"/>
    <rect x="96" y="378" width="48" height="126" fill="#f4956a"/>
    <line x1="168" y1="378" x2="168" y2="504" stroke="#f4956a" stroke-width="9" stroke-linecap="square" fill="none"/>
    <rect x="192" y="441" width="48" height="63" fill="#f4956a"/>
    <rect x="240" y="441" width="48" height="63" fill="#f4956a"/>
    <rect x="336" y="378" width="48" height="126" fill="#f4956a"/>
    <rect x="384" y="378" width="48" height="126" fill="#f4956a"/>
    <line x1="456" y1="378" x2="456" y2="504" stroke="#f4956a" stroke-width="9" stroke-linecap="square" fill="none"/>
    <rect x="480" y="378" width="48" height="126" fill="#7dcfff"/>
    <rect x="528" y="378" width="48" height="126" fill="#7dcfff"/>
    <line x1="600" y1="378" x2="600" y2="504" stroke="#7dcfff" stroke-width="9" stroke-linecap="square" fill="none"/>
    <rect x="768" y="378" width="48" height="126" fill="#7dcfff"/>
    <rect x="816" y="378" width="48" height="126" fill="#7dcfff"/>
    <line x1="888" y1="378" x2="888" y2="504" stroke="#7dcfff" stroke-width="9" stroke-linecap="square" fill="none"/>
    <path d="M960,441 H936 V378" stroke="#7dcfff" stroke-width="9" stroke-linecap="square" fill="none"/>
    <line x1="960" y1="441" x2="1008" y2="441" stroke="#7dcfff" stroke-width="9" stroke-linecap="square" fill="none"/>
    <line x1="1008" y1="441" x2="1056" y2="441" stroke="#7dcfff" stroke-width="9" stroke-linecap="square" fill="none"/>
    <line x1="1056" y1="441" x2="1104" y2="441" stroke="#7dcfff" stroke-width="9" stroke-linecap="square" fill="none"/>
    <line x1="1104" y1="441" x2="1152" y2="441" stroke="#7dcfff" stroke-width="9" stroke-linecap="square" fill="none"/>
    <rect x="1152" y="378" width="48" height="126" fill="#7dcfff"/>
    <rect x="1200" y="378" width="48" height="126" fill="#7dcfff"/>
    <line x1="1272" y1="378" x2="1272" y2="504" stroke="#7dcfff" stroke-width="9" stroke-linecap="square" fill="none"/>
    <rect x="1296" y="378" width="48" height="126" fill="#7dcfff"/>
    <rect x="1344" y="378" width="48" height="126" fill="#7dcfff"/>
    <line x1="1416" y1="378" x2="1416" y2="504" stroke="#7dcfff" stroke-width="9" stroke-linecap="square" fill="none"/>
    <rect x="1536" y="378" width="48" height="126" fill="#7dcfff"/>
    <rect x="1584" y="378" width="48" height="126" fill="#7dcfff"/>
    <line x1="1656" y1="378" x2="1656" y2="504" stroke="#7dcfff" stroke-width="9" stroke-linecap="square" fill="none"/>
    <path d="M96,567 H72 V504" stroke="#f4956a" stroke-width="9" stroke-linecap="square" fill="none"/>
    <rect x="96" y="504" width="48" height="126" fill="#f4956a"/>
    <rect x="144" y="504" width="48" height="126" fill="#f4956a"/>
    <rect x="192" y="504" width="48" height="126" fill="#f4956a"/>
    <rect x="240" y="504" width="48" height="126" fill="#f4956a"/>
    <rect x="288" y="504" width="48" height="126" fill="#f4956a"/>
    <rect x="336" y="504" width="48" height="126" fill="#f4956a"/>
    <path d="M432,567 H408 V630" stroke="#f4956a" stroke-width="9" stroke-linecap="square" fill="none"/>
    <path d="M432,567 H456 V504" stroke="#f4956a" stroke-width="9" stroke-linecap="square" fill="none"/>
    <path d="M528,567 H504 V504" stroke="#7dcfff" stroke-width="9" stroke-linecap="square" fill="none"/>
    <rect x="528" y="504" width="48" height="126" fill="#7dcfff"/>
    <rect x="576" y="504" width="48" height="126" fill="#7dcfff"/>
    <rect x="624" y="504" width="48" height="126" fill="#7dcfff"/>
    <rect x="672" y="504" width="48" height="126" fill="#7dcfff"/>
    <rect x="720" y="504" width="48" height="126" fill="#7dcfff"/>
    <rect x="768" y="504" width="48" height="126" fill="#7dcfff"/>
    <path d="M864,567 H840 V630" stroke="#7dcfff" stroke-width="9" stroke-linecap="square" fill="none"/>
    <path d="M864,567 H888 V504" stroke="#7dcfff" stroke-width="9" stroke-linecap="square" fill="none"/>
    <rect x="912" y="504" width="48" height="126" fill="#7dcfff"/>
    <rect x="960" y="504" width="48" height="126" fill="#7dcfff"/>
    <rect x="1008" y="504" width="48" height="126" fill="#7dcfff"/>
    <rect x="1056" y="504" width="48" height="126" fill="#7dcfff"/>
    <rect x="1104" y="504" width="48" height="126" fill="#7dcfff"/>
    <rect x="1152" y="504" width="48" height="126" fill="#7dcfff"/>
    <rect x="1200" y="504" width="48" height="126" fill="#7dcfff"/>
    <line x1="1272" y1="504" x2="1272" y2="630" stroke="#7dcfff" stroke-width="9" stroke-linecap="square" fill="none"/>
    <rect x="1296" y="504" width="48" height="126" fill="#7dcfff"/>
    <rect x="1344" y="504" width="48" height="126" fill="#7dcfff"/>
    <rect x="1392" y="504" width="48" height="126" fill="#7dcfff"/>
    <rect x="1440" y="504" width="48" height="126" fill="#7dcfff"/>
    <rect x="1488" y="504" width="48" height="126" fill="#7dcfff"/>
    <rect x="1536" y="504" width="48" height="126" fill="#7dcfff"/>
    <path d="M1632,567 H1608 V630" stroke="#7dcfff" stroke-width="9" stroke-linecap="square" fill="none"/>
    <path d="M1632,567 H1656 V504" stroke="#7dcfff" stroke-width="9" stroke-linecap="square" fill="none"/>
    <path d="M144,693 H120 V630" stroke="#f4956a" stroke-width="9" stroke-linecap="square" fill="none"/>
    <line x1="144" y1="693" x2="192" y2="693" stroke="#f4956a" stroke-width="9" stroke-linecap="square" fill="none"/>
    <line x1="192" y1="693" x2="240" y2="693" stroke="#f4956a" stroke-width="9" stroke-linecap="square" fill="none"/>
    <rect x="240" y="630" width="48" height="63" fill="#f4956a"/>
    <rect x="288" y="630" width="48" height="63" fill="#f4956a"/>
    <line x1="336" y1="693" x2="384" y2="693" stroke="#f4956a" stroke-width="9" stroke-linecap="square" fill="none"/>
    <path d="M384,693 H408 V630" stroke="#f4956a" stroke-width="9" stroke-linecap="square" fill="none"/>
    <path d="M576,693 H552 V630" stroke="#7dcfff" stroke-width="9" stroke-linecap="square" fill="none"/>
    <line x1="576" y1="693" x2="624" y2="693" stroke="#7dcfff" stroke-width="9" stroke-linecap="square" fill="none"/>
    <line x1="624" y1="693" x2="672" y2="693" stroke="#7dcfff" stroke-width="9" stroke-linecap="square" fill="none"/>
    <line x1="672" y1="693" x2="720" y2="693" stroke="#7dcfff" stroke-width="9" stroke-linecap="square" fill="none"/>
    <line x1="720" y1="693" x2="768" y2="693" stroke="#7dcfff" stroke-width="9" stroke-linecap="square" fill="none"/>
    <line x1="768" y1="693" x2="816" y2="693" stroke="#7dcfff" stroke-width="9" stroke-linecap="square" fill="none"/>
    <path d="M816,693 H840 V630" stroke="#7dcfff" stroke-width="9" stroke-linecap="square" fill="none"/>
    <path d="M960,693 H936 V630" stroke="#7dcfff" stroke-width="9" stroke-linecap="square" fill="none"/>
    <line x1="960" y1="693" x2="1008" y2="693" stroke="#7dcfff" stroke-width="9" stroke-linecap="square" fill="none"/>
    <line x1="1008" y1="693" x2="1056" y2="693" stroke="#7dcfff" stroke-width="9" stroke-linecap="square" fill="none"/>
    <line x1="1056" y1="693" x2="1104" y2="693" stroke="#7dcfff" stroke-width="9" stroke-linecap="square" fill="none"/>
    <line x1="1104" y1="693" x2="1152" y2="693" stroke="#7dcfff" stroke-width="9" stroke-linecap="square" fill="none"/>
    <line x1="1152" y1="693" x2="1200" y2="693" stroke="#7dcfff" stroke-width="9" stroke-linecap="square" fill="none"/>
    <line x1="1200" y1="693" x2="1248" y2="693" stroke="#7dcfff" stroke-width="9" stroke-linecap="square" fill="none"/>
    <path d="M1248,693 H1272 V630" stroke="#7dcfff" stroke-width="9" stroke-linecap="square" fill="none"/>
    <path d="M1344,693 H1320 V630" stroke="#7dcfff" stroke-width="9" stroke-linecap="square" fill="none"/>
    <line x1="1344" y1="693" x2="1392" y2="693" stroke="#7dcfff" stroke-width="9" stroke-linecap="square" fill="none"/>
    <line x1="1392" y1="693" x2="1440" y2="693" stroke="#7dcfff" stroke-width="9" stroke-linecap="square" fill="none"/>
    <line x1="1440" y1="693" x2="1488" y2="693" stroke="#7dcfff" stroke-width="9" stroke-linecap="square" fill="none"/>
    <line x1="1488" y1="693" x2="1536" y2="693" stroke="#7dcfff" stroke-width="9" stroke-linecap="square" fill="none"/>
    <line x1="1536" y1="693" x2="1584" y2="693" stroke="#7dcfff" stroke-width="9" stroke-linecap="square" fill="none"/>
    <path d="M1584,693 H1608 V630" stroke="#7dcfff" stroke-width="9" stroke-linecap="square" fill="none"/>
  </g>
</svg>