<?xml version="1.0" encoding="UTF-8" standalone="no"?>
<!DOCTYPE svg PUBLIC "-//W3C//DTD SVG 1.1//EN"
 "http://www.w3.org/Graphics/SVG/1.1/DTD/svg11.dtd">
<!-- Generated by graphviz version 14.1.2 (0)
 -->
<!-- Title: account_manager_petri_net Pages: 1 -->
<svg width="1163pt" height="547pt"
 viewBox="0.00 0.00 1163.00 547.00" xmlns="http://www.w3.org/2000/svg" xmlns:xlink="http://www.w3.org/1999/xlink">
<g id="graph0" class="graph" transform="scale(1 1) rotate(0) translate(4 543.4)">
<title>account_manager_petri_net</title>
<polygon fill="white" stroke="none" points="-4,4 -4,-543.4 1159.09,-543.4 1159.09,4 -4,4"/>
<text xml:space="preserve" text-anchor="middle" x="577.54" y="-25" font-family="Times,serif" font-size="14.00">QGSD Account Manager Petri Net</text>
<text xml:space="preserve" text-anchor="middle" x="577.54" y="-8.2" font-family="Times,serif" font-size="14.00">(OAuth credential pool — 1&#45;safe FSM encoding)</text>
<!-- idle -->
<g id="node1" class="node">
<title>idle</title>
<ellipse fill="white" stroke="black" cx="90.37" cy="-267.6" rx="46.8" ry="46.8"/>
<text xml:space="preserve" text-anchor="middle" x="90.37" y="-263.4" font-family="Helvetica,sans-Serif" font-size="14.00">IDLE</text>
<text xml:space="preserve" text-anchor="middle" x="21.79" y="-208.2" font-family="Helvetica,sans-Serif" font-size="14.00">●</text>
<text xml:space="preserve" text-anchor="middle" x="21.79" y="-191.4" font-family="Helvetica,sans-Serif" font-size="14.00">(token)</text>
</g>
<!-- t_start_add -->
<g id="node7" class="node">
<title>t_start_add</title>
<polygon fill="black" stroke="black" points="289.73,-184.2 174.53,-184.2 174.53,-159 289.73,-159 289.73,-184.2"/>
<text xml:space="preserve" text-anchor="middle" x="232.13" y="-167.4" font-family="Helvetica,sans-Serif" font-size="14.00" fill="white">StartAdd(id)</text>
</g>
<!-- idle&#45;&gt;t_start_add -->
<g id="edge1" class="edge">
<title>idle&#45;&gt;t_start_add</title>
<path fill="none" stroke="black" d="M129.56,-241.37C152.73,-225.46 181.78,-205.5 202.88,-191.01"/>
<polygon fill="black" stroke="black" points="204.74,-193.98 211,-185.43 200.77,-188.21 204.74,-193.98"/>
</g>
<!-- t_start_switch -->
<g id="node12" class="node">
<title>t_start_switch</title>
<polygon fill="black" stroke="black" points="289.73,-488.2 174.53,-488.2 174.53,-463 289.73,-463 289.73,-488.2"/>
<text xml:space="preserve" text-anchor="middle" x="232.13" y="-471.4" font-family="Helvetica,sans-Serif" font-size="14.00" fill="white">StartSwitch(id)</text>
</g>
<!-- idle&#45;&gt;t_start_switch -->
<g id="edge3" class="edge">
<title>idle&#45;&gt;t_start_switch</title>
<path fill="none" stroke="black" d="M106.86,-311.53C120.63,-346.53 143.22,-395.47 173.17,-431.6 180.79,-440.79 190.68,-449.19 200.13,-456.14"/>
<polygon fill="black" stroke="black" points="197.89,-458.84 208.09,-461.7 201.9,-453.1 197.89,-458.84"/>
</g>
<!-- t_start_remove -->
<g id="node15" class="node">
<title>t_start_remove</title>
<polygon fill="black" stroke="black" points="291.09,-338.2 173.17,-338.2 173.17,-313 291.09,-313 291.09,-338.2"/>
<text xml:space="preserve" text-anchor="middle" x="232.13" y="-321.4" font-family="Helvetica,sans-Serif" font-size="14.00" fill="white">StartRemove(id)</text>
</g>
<!-- idle&#45;&gt;t_start_remove -->
<g id="edge5" class="edge">
<title>idle&#45;&gt;t_start_remove</title>
<path fill="none" stroke="black" d="M134.06,-285.32C151.61,-292.6 171.87,-301.01 189.33,-308.25"/>
<polygon fill="black" stroke="black" points="187.81,-311.41 198.39,-312.01 190.5,-304.95 187.81,-311.41"/>
</g>
<!-- adding -->
<g id="node2" class="node">
<title>adding</title>
<ellipse fill="white" stroke="black" cx="373.89" cy="-154.6" rx="46.8" ry="46.8"/>
<text xml:space="preserve" text-anchor="middle" x="373.89" y="-150.4" font-family="Helvetica,sans-Serif" font-size="14.00">ADDING</text>
</g>
<!-- t_oauth_ok -->
<g id="node8" class="node">
<title>t_oauth_ok</title>
<polygon fill="black" stroke="black" points="571.89,-167.2 456.69,-167.2 456.69,-142 571.89,-142 571.89,-167.2"/>
<text xml:space="preserve" text-anchor="middle" x="514.29" y="-150.4" font-family="Helvetica,sans-Serif" font-size="14.00" fill="white">OAuthSuccess</text>
</g>
<!-- adding&#45;&gt;t_oauth_ok -->
<g id="edge7" class="edge">
<title>adding&#45;&gt;t_oauth_ok</title>
<path fill="none" stroke="black" d="M420.97,-154.6C428.67,-154.6 436.8,-154.6 444.91,-154.6"/>
<polygon fill="black" stroke="black" points="444.81,-158.1 454.81,-154.6 444.81,-151.1 444.81,-158.1"/>
</g>
<!-- t_oauth_fail -->
<g id="node9" class="node">
<title>t_oauth_fail</title>
<polygon fill="black" stroke="black" points="571.89,-110.2 456.69,-110.2 456.69,-85 571.89,-85 571.89,-110.2"/>
<text xml:space="preserve" text-anchor="middle" x="514.29" y="-93.4" font-family="Helvetica,sans-Serif" font-size="14.00" fill="white">OAuthFail</text>
</g>
<!-- adding&#45;&gt;t_oauth_fail -->
<g id="edge9" class="edge">
<title>adding&#45;&gt;t_oauth_fail</title>
<path fill="none" stroke="black" d="M417.54,-137.03C434.64,-129.99 454.29,-121.9 471.33,-114.88"/>
<polygon fill="black" stroke="black" points="472.23,-118.29 480.15,-111.25 469.57,-111.82 472.23,-118.29"/>
</g>
<!-- saving -->
<g id="node3" class="node">
<title>saving</title>
<ellipse fill="white" stroke="black" cx="665.49" cy="-154.6" rx="46.8" ry="46.8"/>
<text xml:space="preserve" text-anchor="middle" x="665.49" y="-150.4" font-family="Helvetica,sans-Serif" font-size="14.00">SAVING</text>
</g>
<!-- t_save_ok -->
<g id="node10" class="node">
<title>t_save_ok</title>
<polygon fill="black" stroke="black" points="874.29,-226.2 759.09,-226.2 759.09,-201 874.29,-201 874.29,-226.2"/>
<text xml:space="preserve" text-anchor="middle" x="816.69" y="-209.4" font-family="Helvetica,sans-Serif" font-size="14.00" fill="white">SaveOk</text>
</g>
<!-- saving&#45;&gt;t_save_ok -->
<g id="edge11" class="edge">
<title>saving&#45;&gt;t_save_ok</title>
<path fill="none" stroke="black" d="M709.24,-171.51C729.01,-179.32 752.44,-188.59 772.28,-196.43"/>
<polygon fill="black" stroke="black" points="770.9,-199.65 781.48,-200.07 773.47,-193.14 770.9,-199.65"/>
</g>
<!-- t_save_fail -->
<g id="node11" class="node">
<title>t_save_fail</title>
<polygon fill="black" stroke="black" points="874.29,-167.2 759.09,-167.2 759.09,-142 874.29,-142 874.29,-167.2"/>
<text xml:space="preserve" text-anchor="middle" x="816.69" y="-150.4" font-family="Helvetica,sans-Serif" font-size="14.00" fill="white">SaveFail</text>
</g>
<!-- saving&#45;&gt;t_save_fail -->
<g id="edge13" class="edge">
<title>saving&#45;&gt;t_save_fail</title>
<path fill="none" stroke="black" d="M712.47,-154.6C723.57,-154.6 735.66,-154.6 747.53,-154.6"/>
<polygon fill="black" stroke="black" points="747.29,-158.1 757.29,-154.6 747.29,-151.1 747.29,-158.1"/>
</g>
<!-- switching -->
<g id="node4" class="node">
<title>switching</title>
<ellipse fill="white" stroke="black" cx="373.89" cy="-492.6" rx="46.8" ry="46.8"/>
<text xml:space="preserve" text-anchor="middle" x="373.89" y="-488.4" font-family="Helvetica,sans-Serif" font-size="14.00">SWITCHING</text>
</g>
<!-- t_swap_ok -->
<g id="node13" class="node">
<title>t_swap_ok</title>
<polygon fill="black" stroke="black" points="571.89,-438.2 456.69,-438.2 456.69,-413 571.89,-413 571.89,-438.2"/>
<text xml:space="preserve" text-anchor="middle" x="514.29" y="-421.4" font-family="Helvetica,sans-Serif" font-size="14.00" fill="white">SwapOk</text>
</g>
<!-- switching&#45;&gt;t_swap_ok -->
<g id="edge15" class="edge">
<title>switching&#45;&gt;t_swap_ok</title>
<path fill="none" stroke="black" d="M416.41,-472.5C435.45,-463.28 457.83,-452.45 476.28,-443.52"/>
<polygon fill="black" stroke="black" points="477.8,-446.67 485.28,-439.16 474.75,-440.37 477.8,-446.67"/>
</g>
<!-- t_swap_fail -->
<g id="node14" class="node">
<title>t_swap_fail</title>
<polygon fill="black" stroke="black" points="723.09,-405.2 607.89,-405.2 607.89,-380 723.09,-380 723.09,-405.2"/>
<text xml:space="preserve" text-anchor="middle" x="665.49" y="-388.4" font-family="Helvetica,sans-Serif" font-size="14.00" fill="white">SwapFail</text>
</g>
<!-- switching&#45;&gt;t_swap_fail -->
<g id="edge17" class="edge">
<title>switching&#45;&gt;t_swap_fail</title>
<path fill="none" stroke="black" d="M420.69,-486.28C461.42,-479.71 522.05,-467.52 571.89,-447.6 595.07,-438.33 619.27,-423.77 637.11,-411.95"/>
<polygon fill="black" stroke="black" points="639,-414.9 645.32,-406.4 635.07,-409.11 639,-414.9"/>
</g>
<!-- removing -->
<g id="node5" class="node">
<title>removing</title>
<ellipse fill="white" stroke="black" cx="373.89" cy="-342.6" rx="46.8" ry="46.8"/>
<text xml:space="preserve" text-anchor="middle" x="373.89" y="-338.4" font-family="Helvetica,sans-Serif" font-size="14.00">REMOVING</text>
</g>
<!-- t_remove_ok -->
<g id="node16" class="node">
<title>t_remove_ok</title>
<polygon fill="black" stroke="black" points="571.89,-291.2 456.69,-291.2 456.69,-266 571.89,-266 571.89,-291.2"/>
<text xml:space="preserve" text-anchor="middle" x="514.29" y="-274.4" font-family="Helvetica,sans-Serif" font-size="14.00" fill="white">RemoveOk</text>
</g>
<!-- removing&#45;&gt;t_remove_ok -->
<g id="edge19" class="edge">
<title>removing&#45;&gt;t_remove_ok</title>
<path fill="none" stroke="black" d="M416.79,-323.22C435.19,-314.71 456.66,-304.79 474.67,-296.46"/>
<polygon fill="black" stroke="black" points="476.12,-299.64 483.73,-292.27 473.18,-293.29 476.12,-299.64"/>
</g>
<!-- t_remove_fail -->
<g id="node17" class="node">
<title>t_remove_fail</title>
<polygon fill="black" stroke="black" points="723.09,-326.2 607.89,-326.2 607.89,-301 723.09,-301 723.09,-326.2"/>
<text xml:space="preserve" text-anchor="middle" x="665.49" y="-309.4" font-family="Helvetica,sans-Serif" font-size="14.00" fill="white">RemoveFail</text>
</g>
<!-- removing&#45;&gt;t_remove_fail -->
<g id="edge21" class="edge">
<title>removing&#45;&gt;t_remove_fail</title>
<path fill="none" stroke="black" d="M420.78,-338C468.05,-333.27 542.27,-325.84 596.4,-320.42"/>
<polygon fill="black" stroke="black" points="596.52,-323.92 606.12,-319.45 595.82,-316.96 596.52,-323.92"/>
</g>
<!-- error -->
<g id="node6" class="node">
<title>error</title>
<ellipse fill="#ffe0e0" stroke="black" cx="957.09" cy="-154.6" rx="46.8" ry="46.8"/>
<text xml:space="preserve" text-anchor="middle" x="957.09" y="-150.4" font-family="Helvetica,sans-Serif" font-size="14.00">ERROR</text>
</g>
<!-- t_reset -->
<g id="node18" class="node">
<title>t_reset</title>
<polygon fill="black" stroke="black" points="1155.09,-110.2 1039.89,-110.2 1039.89,-85 1155.09,-85 1155.09,-110.2"/>
<text xml:space="preserve" text-anchor="middle" x="1097.49" y="-93.4" font-family="Helvetica,sans-Serif" font-size="14.00" fill="white">ResetError</text>
</g>
<!-- error&#45;&gt;t_reset -->
<g id="edge23" class="edge">
<title>error&#45;&gt;t_reset</title>
<path fill="none" stroke="black" d="M1000.74,-137.03C1017.84,-129.99 1037.49,-121.9 1054.53,-114.88"/>
<polygon fill="black" stroke="black" points="1055.43,-118.29 1063.35,-111.25 1052.77,-111.82 1055.43,-118.29"/>
</g>
<!-- t_start_add&#45;&gt;adding -->
<g id="edge2" class="edge">
<title>t_start_add&#45;&gt;adding</title>
<path fill="none" stroke="black" d="M289.98,-164.69C298.5,-163.65 307.29,-162.58 315.81,-161.54"/>
<polygon fill="black" stroke="black" points="316.22,-165.02 325.72,-160.34 315.37,-158.07 316.22,-165.02"/>
</g>
<!-- t_oauth_ok&#45;&gt;saving -->
<g id="edge8" class="edge">
<title>t_oauth_ok&#45;&gt;saving</title>
<path fill="none" stroke="black" d="M572.12,-154.6C583.61,-154.6 595.69,-154.6 607.2,-154.6"/>
<polygon fill="black" stroke="black" points="606.95,-158.1 616.95,-154.6 606.95,-151.1 606.95,-158.1"/>
</g>
<!-- t_oauth_fail&#45;&gt;error -->
<g id="edge10" class="edge">
<title>t_oauth_fail&#45;&gt;error</title>
<path fill="none" stroke="black" d="M572.37,-94.57C614.23,-93.15 672.37,-92.84 723.09,-98.6 791.53,-106.37 807.42,-116.1 874.29,-132.6 882.82,-134.71 891.83,-137.03 900.62,-139.35"/>
<polygon fill="black" stroke="black" points="899.57,-142.69 910.14,-141.88 901.38,-135.93 899.57,-142.69"/>
</g>
<!-- t_save_ok&#45;&gt;idle -->
<g id="edge12" class="edge">
<title>t_save_ok&#45;&gt;idle</title>
<path fill="none" stroke="black" d="M758.71,-218.44C698.32,-223.15 600.16,-229.6 515.29,-229.6 372.89,-229.6 372.89,-229.6 372.89,-229.6 294.22,-229.6 204.29,-244.35 147.68,-255.47"/>
<polygon fill="black" stroke="black" points="147.07,-252.03 137.95,-257.42 148.44,-258.89 147.07,-252.03"/>
</g>
<!-- t_save_fail&#45;&gt;error -->
<g id="edge14" class="edge">
<title>t_save_fail&#45;&gt;error</title>
<path fill="none" stroke="black" d="M874.78,-154.6C882.69,-154.6 890.81,-154.6 898.72,-154.6"/>
<polygon fill="black" stroke="black" points="898.59,-158.1 908.59,-154.6 898.59,-151.1 898.59,-158.1"/>
</g>
<!-- t_start_switch&#45;&gt;switching -->
<g id="edge4" class="edge">
<title>t_start_switch&#45;&gt;switching</title>
<path fill="none" stroke="black" d="M289.98,-482.51C298.5,-483.55 307.29,-484.62 315.81,-485.66"/>
<polygon fill="black" stroke="black" points="315.37,-489.13 325.72,-486.86 316.22,-482.18 315.37,-489.13"/>
</g>
<!-- t_swap_ok&#45;&gt;idle -->
<g id="edge16" class="edge">
<title>t_swap_ok&#45;&gt;idle</title>
<path fill="none" stroke="black" d="M456.21,-423.43C385.11,-418.38 262.16,-401.81 173.17,-347.6 157.16,-337.84 141.83,-324.4 128.86,-311.32"/>
<polygon fill="black" stroke="black" points="131.61,-309.13 122.15,-304.35 126.56,-313.99 131.61,-309.13"/>
</g>
<!-- t_swap_fail&#45;&gt;error -->
<g id="edge18" class="edge">
<title>t_swap_fail&#45;&gt;error</title>
<path fill="none" stroke="black" d="M699.73,-379.62C743.47,-361.34 821.01,-324.7 874.29,-275.6 895.91,-255.68 914.72,-228.98 928.84,-205.74"/>
<polygon fill="black" stroke="black" points="931.74,-207.7 933.82,-197.32 925.72,-204.14 931.74,-207.7"/>
</g>
<!-- t_start_remove&#45;&gt;removing -->
<g id="edge6" class="edge">
<title>t_start_remove&#45;&gt;removing</title>
<path fill="none" stroke="black" d="M291.19,-332.66C299.34,-333.65 307.72,-334.67 315.86,-335.66"/>
<polygon fill="black" stroke="black" points="315.3,-339.12 325.65,-336.85 316.14,-332.17 315.3,-339.12"/>
</g>
<!-- t_remove_ok&#45;&gt;idle -->
<g id="edge20" class="edge">
<title>t_remove_ok&#45;&gt;idle</title>
<path fill="none" stroke="black" d="M456.35,-277.12C375.82,-275.02 229.51,-271.2 148.75,-269.1"/>
<polygon fill="black" stroke="black" points="148.93,-265.6 138.84,-268.84 148.75,-272.6 148.93,-265.6"/>
</g>
<!-- t_remove_fail&#45;&gt;error -->
<g id="edge22" class="edge">
<title>t_remove_fail&#45;&gt;error</title>
<path fill="none" stroke="black" d="M718.83,-300.59C762.64,-288.2 825.62,-266.78 874.29,-235.6 890.18,-225.42 905.47,-211.73 918.45,-198.51"/>
<polygon fill="black" stroke="black" points="920.8,-201.12 925.17,-191.47 915.73,-196.29 920.8,-201.12"/>
</g>
<!-- t_reset&#45;&gt;idle -->
<g id="edge24" class="edge">
<title>t_reset&#45;&gt;idle</title>
<path fill="none" stroke="black" d="M1057.28,-84.61C1003.77,-68.07 904.58,-41.6 817.69,-41.6 372.89,-41.6 372.89,-41.6 372.89,-41.6 271.98,-41.6 248.36,-82.29 173.17,-149.6 151.9,-168.65 133.28,-194.27 119.21,-216.78"/>
<polygon fill="black" stroke="black" points="116.27,-214.88 114.05,-225.24 122.25,-218.52 116.27,-214.88"/>
</g>
</g>
</svg>
