<svg xmlns="http://www.w3.org/2000/svg" viewBox="0 0 960 596">
  <!-- Window frame -->
  <rect fill="#24283b" width="960" height="596" rx="12"/>
  <rect fill="#1a1b26" x="1" y="1" width="958" height="594" rx="11"/>

  <!-- Title bar -->
  <rect fill="#1f2335" x="1" y="1" width="958" height="36" rx="11"/>
  <rect fill="#1a1b26" x="1" y="26" width="958" height="12"/>

  <!-- Traffic lights -->
  <circle fill="#f7768e"    cx="24" cy="19" r="7"/>
  <circle fill="#e0af68" cx="48" cy="19" r="7"/>
  <circle fill="#9ece6a"  cx="72" cy="19" r="7"/>

  <!-- Window title -->
  <text x="480" y="24" text-anchor="middle"
        font-family="'SF Mono', 'Fira Code', 'JetBrains Mono', Consolas, monospace" font-size="13" fill="#565f89">Terminal</text>

  <!-- Content -->
  <g transform="translate(32, 64)">
    <text font-family="'SF Mono', 'Fira Code', 'JetBrains Mono', Consolas, monospace" font-size="14" y="0" xml:space="preserve"><tspan fill="#7aa2f7">~</tspan><tspan fill="#565f89"> $ </tspan><tspan fill="#c0caf5">npx nforma@latest</tspan></text>
    <rect x="92.4" y="22.0" width="8.4" height="22" fill="#7dcfff"/>
    <rect x="100.8" y="22.0" width="8.4" height="22" fill="#7dcfff"/>
    <rect x="109.2" y="22.0" width="8.4" height="22" fill="#7dcfff"/>
    <rect x="117.6" y="22.0" width="8.4" height="22" fill="#7dcfff"/>
    <rect x="126.0" y="22.0" width="8.4" height="22" fill="#7dcfff"/>
    <rect x="134.4" y="22.0" width="8.4" height="22" fill="#7dcfff"/>
    <rect x="142.8" y="22.0" width="8.4" height="22" fill="#7dcfff"/>
    <path d="M151.2,33.0 H155.4 V44.0" stroke="#7dcfff" stroke-width="1.5" stroke-linecap="square" fill="none"/>
    <rect x="92.4" y="44.0" width="8.4" height="22" fill="#7dcfff"/>
    <rect x="100.8" y="44.0" width="8.4" height="22" fill="#7dcfff"/>
    <path d="M117.6,55.0 H113.4 V66.0" stroke="#7dcfff" stroke-width="1.5" stroke-linecap="square" fill="none"/>
    <line x1="117.6" y1="55.0" x2="126.0" y2="55.0" stroke="#7dcfff" stroke-width="1.5" stroke-linecap="square" fill="none"/>
    <line x1="126.0" y1="55.0" x2="134.4" y2="55.0" stroke="#7dcfff" stroke-width="1.5" stroke-linecap="square" fill="none"/>
    <line x1="134.4" y1="55.0" x2="142.8" y2="55.0" stroke="#7dcfff" stroke-width="1.5" stroke-linecap="square" fill="none"/>
    <line x1="142.8" y1="55.0" x2="151.2" y2="55.0" stroke="#7dcfff" stroke-width="1.5" stroke-linecap="square" fill="none"/>
    <path d="M151.2,55.0 H155.4 V44.0" stroke="#7dcfff" stroke-width="1.5" stroke-linecap="square" fill="none"/>
    <rect x="16.8" y="66.0" width="8.4" height="22" fill="#f4956a"/>
    <rect x="25.2" y="66.0" width="8.4" height="22" fill="#f4956a"/>
    <rect x="33.6" y="66.0" width="8.4" height="22" fill="#f4956a"/>
    <rect x="42.0" y="66.0" width="8.4" height="22" fill="#f4956a"/>
    <rect x="50.4" y="66.0" width="8.4" height="22" fill="#f4956a"/>
    <rect x="58.8" y="66.0" width="8.4" height="22" fill="#f4956a"/>
    <path d="M67.2,77.0 H71.4 V88.0" stroke="#f4956a" stroke-width="1.5" stroke-linecap="square" fill="none"/>
    <rect x="92.4" y="66.0" width="8.4" height="22" fill="#7dcfff"/>
    <rect x="100.8" y="66.0" width="8.4" height="22" fill="#7dcfff"/>
    <rect x="109.2" y="66.0" width="8.4" height="22" fill="#7dcfff"/>
    <rect x="117.6" y="66.0" width="8.4" height="22" fill="#7dcfff"/>
    <rect x="126.0" y="66.0" width="8.4" height="22" fill="#7dcfff"/>
    <path d="M134.4,77.0 H138.6 V88.0" stroke="#7dcfff" stroke-width="1.5" stroke-linecap="square" fill="none"/>
    <rect x="16.8" y="88.0" width="8.4" height="22" fill="#f4956a"/>
    <rect x="25.2" y="88.0" width="8.4" height="22" fill="#f4956a"/>
    <path d="M42.0,99.0 H37.8 V110.0" stroke="#f4956a" stroke-width="1.5" stroke-linecap="square" fill="none"/>
    <line x1="42.0" y1="99.0" x2="50.4" y2="99.0" stroke="#f4956a" stroke-width="1.5" stroke-linecap="square" fill="none"/>
    <line x1="50.4" y1="99.0" x2="58.8" y2="99.0" stroke="#f4956a" stroke-width="1.5" stroke-linecap="square" fill="none"/>
    <rect x="58.8" y="88.0" width="8.4" height="22" fill="#f4956a"/>
    <rect x="67.2" y="88.0" width="8.4" height="22" fill="#f4956a"/>
    <path d="M75.6,99.0 H79.8 V110.0" stroke="#f4956a" stroke-width="1.5" stroke-linecap="square" fill="none"/>
    <rect x="92.4" y="88.0" width="8.4" height="22" fill="#7dcfff"/>
    <rect x="100.8" y="88.0" width="8.4" height="22" fill="#7dcfff"/>
    <path d="M117.6,99.0 H113.4 V110.0" stroke="#7dcfff" stroke-width="1.5" stroke-linecap="square" fill="none"/>
    <line x1="117.6" y1="99.0" x2="126.0" y2="99.0" stroke="#7dcfff" stroke-width="1.5" stroke-linecap="square" fill="none"/>
    <line x1="126.0" y1="99.0" x2="134.4" y2="99.0" stroke="#7dcfff" stroke-width="1.5" stroke-linecap="square" fill="none"/>
    <path d="M134.4,99.0 H138.6 V88.0" stroke="#7dcfff" stroke-width="1.5" stroke-linecap="square" fill="none"/>
    <rect x="16.8" y="110.0" width="8.4" height="22" fill="#f4956a"/>
    <rect x="25.2" y="110.0" width="8.4" height="22" fill="#f4956a"/>
    <line x1="37.8" y1="110.0" x2="37.8" y2="132.0" stroke="#f4956a" stroke-width="1.5" stroke-linecap="square" fill="none"/>
    <rect x="58.8" y="110.0" width="8.4" height="22" fill="#f4956a"/>
    <rect x="67.2" y="110.0" width="8.4" height="22" fill="#f4956a"/>
    <line x1="79.8" y1="110.0" x2="79.8" y2="132.0" stroke="#f4956a" stroke-width="1.5" stroke-linecap="square" fill="none"/>
    <rect x="92.4" y="110.0" width="8.4" height="22" fill="#7dcfff"/>
    <rect x="100.8" y="110.0" width="8.4" height="22" fill="#7dcfff"/>
    <line x1="113.4" y1="110.0" x2="113.4" y2="132.0" stroke="#7dcfff" stroke-width="1.5" stroke-linecap="square" fill="none"/>
    <path d="M25.2,143.0 H21.0 V132.0" stroke="#f4956a" stroke-width="1.5" stroke-linecap="square" fill="none"/>
    <line x1="25.2" y1="143.0" x2="33.6" y2="143.0" stroke="#f4956a" stroke-width="1.5" stroke-linecap="square" fill="none"/>
    <path d="M33.6,143.0 H37.8 V132.0" stroke="#f4956a" stroke-width="1.5" stroke-linecap="square" fill="none"/>
    <path d="M67.2,143.0 H63.0 V132.0" stroke="#f4956a" stroke-width="1.5" stroke-linecap="square" fill="none"/>
    <line x1="67.2" y1="143.0" x2="75.6" y2="143.0" stroke="#f4956a" stroke-width="1.5" stroke-linecap="square" fill="none"/>
    <path d="M75.6,143.0 H79.8 V132.0" stroke="#f4956a" stroke-width="1.5" stroke-linecap="square" fill="none"/>
    <path d="M100.8,143.0 H96.6 V132.0" stroke="#7dcfff" stroke-width="1.5" stroke-linecap="square" fill="none"/>
    <line x1="100.8" y1="143.0" x2="109.2" y2="143.0" stroke="#7dcfff" stroke-width="1.5" stroke-linecap="square" fill="none"/>
    <path d="M109.2,143.0 H113.4 V132.0" stroke="#7dcfff" stroke-width="1.5" stroke-linecap="square" fill="none"/>
    <text font-family="'SF Mono', 'Fira Code', 'JetBrains Mono', Consolas, monospace" font-size="14" y="198" xml:space="preserve"><tspan fill="#c0caf5">  nForma </tspan><tspan fill="#c0caf5">— Consensus before code. Proof before production. </tspan><tspan fill="#565f89">v0.37.0</tspan></text>
    <text font-family="'SF Mono', 'Fira Code', 'JetBrains Mono', Consolas, monospace" font-size="14" y="220" xml:space="preserve"><tspan fill="#565f89">  Built on GSD-CC by TÂCHES.</tspan></text>
    <text font-family="'SF Mono', 'Fira Code', 'JetBrains Mono', Consolas, monospace" font-size="14" y="264" xml:space="preserve"><tspan fill="#7dcfff">  The task of leadership is to create an alignment of strengths</tspan></text>
    <text font-family="'SF Mono', 'Fira Code', 'JetBrains Mono', Consolas, monospace" font-size="14" y="286" xml:space="preserve"><tspan fill="#7dcfff">   so strong that it makes the system’s weaknesses irrelevant.</tspan></text>
    <text font-family="'SF Mono', 'Fira Code', 'JetBrains Mono', Consolas, monospace" font-size="14" y="308" xml:space="preserve"><tspan fill="#565f89">  — Peter Drucker</tspan></text>
    <text font-family="'SF Mono', 'Fira Code', 'JetBrains Mono', Consolas, monospace" font-size="14" y="352" xml:space="preserve"><tspan fill="#9ece6a">  ✓</tspan><tspan fill="#c0caf5"> 32 commands installed</tspan></text>
    <text font-family="'SF Mono', 'Fira Code', 'JetBrains Mono', Consolas, monospace" font-size="14" y="374" xml:space="preserve"><tspan fill="#9ece6a">  ✓</tspan><tspan fill="#c0caf5"> Quorum hooks configured</tspan></text>
    <text font-family="'SF Mono', 'Fira Code', 'JetBrains Mono', Consolas, monospace" font-size="14" y="418" xml:space="preserve"><tspan fill="#9ece6a">  Done! </tspan><tspan fill="#c0caf5">Run </tspan><tspan fill="#7dcfff">/nf:help</tspan><tspan fill="#c0caf5"> to get started.</tspan></text>
    <text font-family="'SF Mono', 'Fira Code', 'JetBrains Mono', Consolas, monospace" font-size="14" y="462" xml:space="preserve"><tspan fill="#7aa2f7">~</tspan><tspan fill="#565f89"> $ </tspan><tspan fill="#c0caf5">▌</tspan></text>
  </g>
</svg>